<?xml version="1.0" encoding="UTF-8" standalone="no"?>
<!DOCTYPE svg PUBLIC "-//W3C//DTD SVG 1.1//EN" "http://www.w3.org/Graphics/SVG/1.1/DTD/svg11.dtd">
<svg width="100%" height="100%" viewBox="0 0 2009 317" version="1.1" xmlns="http://www.w3.org/2000/svg" xmlns:xlink="http://www.w3.org/1999/xlink" xml:space="preserve" xmlns:serif="http://www.serif.com/" style="fill-rule:evenodd;clip-rule:evenodd;stroke-linejoin:round;stroke-miterlimit:2;">
    <g transform="matrix(4.166667,0,0,4.166667,899.562584,134.597917)">
        <path d="M0,9.732C1.46,11.369 3.106,12.99 4.921,14.568C4.727,13.066 4.591,11.521 4.507,9.943C3.554,9.006 2.667,8.061 1.848,7.107C1.165,7.993 0.549,8.871 0,9.732M-2.228,1.452C-8.236,-8.65 -4.045,-16.29 7.942,-16.162C8.322,-17.217 8.736,-18.23 9.166,-19.2C-6.569,-19.919 -12.575,-8.86 -4.287,4.094C-3.654,3.208 -2.971,2.33 -2.228,1.452M6.313,2.178C6.057,7.774 6.385,13.511 7.478,18.982C7.925,21.337 8.499,23.565 9.191,25.641C9.377,25.641 9.571,25.633 9.765,25.616C10.626,25.566 11.504,25.473 12.39,25.346C11.207,21.995 10.428,18.469 9.926,14.897C9.909,14.813 9.892,14.728 9.884,14.636C9.199,9.645 9.1,4.312 9.588,-0.708C8.423,0.237 7.326,1.208 6.313,2.178M11.251,-10.279C11.597,-11.562 11.968,-12.811 12.39,-13.993C15.446,-23.589 23.891,-33.941 32.672,-24.374L34.3,-27.134C24.28,-36.879 13.837,-27.723 9.833,-16.103C9.605,-15.512 9.385,-14.904 9.191,-14.28C8.499,-12.203 7.925,-9.975 7.478,-7.629C8.677,-8.541 9.943,-9.427 11.251,-10.279M12.981,26.966C11.926,27.127 10.879,27.237 9.866,27.296L9.774,27.296C-6.763,28.234 -8.361,17.064 0.768,5.799C7.16,-2.147 16.03,-8.148 25.413,-12.085C26.12,-13.278 27.455,-15.541 28.148,-16.719C28.021,-16.677 27.886,-16.634 27.759,-16.584C17.322,-12.92 7.357,-6.687 -0.084,1.478C-0.084,1.478 -0.076,1.478 -0.084,1.486C-14.777,17.545 -8.9,33.819 13.893,30.241C14.028,29.799 14.769,27.418 14.922,26.924L15.024,26.621C14.948,26.638 14.88,26.654 14.813,26.654C14.196,26.781 13.589,26.882 12.981,26.966M11.96,16.172C12.196,17.666 12.492,19.092 12.829,20.459C13.94,21.166 15.11,21.889 16.29,22.544L17.218,19.565C15.378,18.493 13.622,17.362 11.96,16.172M14.88,-15.461C16.129,-15.225 17.395,-14.929 18.686,-14.567C20.054,-15.267 21.429,-15.9 22.814,-16.483C20.577,-17.259 18.366,-17.867 16.196,-18.306C15.732,-17.428 15.293,-16.474 14.88,-15.461M27.979,27.844C30.216,28.612 32.427,29.22 34.587,29.667C35.052,28.781 35.499,27.836 35.913,26.815C34.663,26.578 33.389,26.283 32.098,25.92C30.73,26.621 29.355,27.254 27.979,27.844M38.824,-4.827C39.44,-4.388 40.039,-3.941 40.63,-3.485C40.723,-3.418 40.816,-3.35 40.909,-3.274C40.968,-3.232 41.027,-3.19 41.078,-3.139C43.929,-0.93 46.61,1.559 48.935,4.246C49.619,3.36 50.235,2.482 50.784,1.621C46.253,-3.449 40.477,-7.803 34.495,-11.191L33.558,-8.211C35.406,-7.148 37.162,-6.009 38.824,-4.827M38.402,-13.993C38.816,-12.811 39.195,-11.57 39.525,-10.288C40.841,-9.435 42.107,-8.541 43.314,-7.629C42.867,-9.975 42.293,-12.203 41.601,-14.28C41.424,-14.845 41.23,-15.402 41.019,-15.951C40.605,-17.09 40.141,-18.188 39.66,-19.226C39.137,-20.308 38.591,-21.356 37.98,-22.365C37.613,-21.186 37.059,-19.376 36.681,-18.204C37.077,-17.386 37.457,-16.516 37.803,-15.613C38.014,-15.09 38.217,-14.541 38.402,-13.993M39.525,21.641C37.177,31.787 28.396,46.611 18.113,35.736L16.484,38.487C24.26,46.225 33.711,42.275 38.841,32.208C41.03,28.032 42.396,23.72 43.314,18.982C42.107,19.894 40.841,20.788 39.525,21.641M44.479,9.167C44.593,6.89 44.593,4.467 44.479,2.187C43.466,1.208 42.369,0.246 41.196,-0.708C41.613,3.421 41.614,7.933 41.196,12.062C42.369,11.108 43.466,10.146 44.479,9.167M53.021,9.892C59.015,19.997 54.853,27.645 42.85,27.515C42.47,28.562 42.065,29.575 41.626,30.545C57.707,31.255 63.195,19.92 55.071,7.259C54.447,8.145 53.763,9.023 53.021,9.892M54.556,-11.165C57.4,-6.72 53.865,0.981 50.024,5.554C43.622,13.497 34.772,19.507 25.379,23.43C24.679,24.63 23.337,26.881 22.645,28.064C22.771,28.03 22.898,27.988 23.025,27.937C34.042,24.039 44.589,17.386 52.109,8.424C63.287,-4.552 61.301,-20.009 41.55,-19.352C42.04,-18.289 42.487,-17.166 42.909,-16.001C48.648,-15.984 52.742,-14.313 54.556,-11.165" style="fill:white;fill-rule:nonzero;"/>
    </g>
    <g transform="matrix(4.166667,0,0,4.166667,1063.404251,316.5)">
        <path d="M0,-75.96L-26.4,-31.282L-17.347,-33.645L-27.852,0L-1.452,-44.678L-10.505,-42.315L0,-75.96Z" style="fill:rgb(255,205,0);fill-rule:nonzero;"/>
    </g>
    <g transform="matrix(4.166667,0,0,4.166667,177.239251,111.79375)">
        <path d="M0,22.299C-4.009,22.299 -6.814,21.465 -8.412,19.799C-10.012,18.132 -10.53,15.53 -9.967,11.994L-8.075,0L-0.98,0L-2.939,12.332C-3.344,14.922 -2.038,16.217 0.98,16.217C3.998,16.217 5.71,14.922 6.115,12.332L8.075,0L15.17,0L13.278,11.994C12.715,15.53 11.363,18.132 9.223,19.799C7.083,21.465 4.009,22.299 0,22.299" style="fill:white;fill-rule:nonzero;"/>
    </g>
    <g transform="matrix(4.166667,0,0,4.166667,245.604251,111.795)">
        <path d="M0,21.961L3.48,0L13.683,0L16.386,10.676L22.434,0L32.637,0L29.157,21.961L22.062,21.961L24.258,8.075L18.65,17.974L11.791,17.974L9.291,8.075L7.095,21.961L0,21.961Z" style="fill:white;fill-rule:nonzero;"/>
    </g>
    <g transform="matrix(4.166667,0,0,4.166667,462.123418,168.10875)">
        <path d="M0,-5.069C0.135,-5.924 0,-6.533 -0.406,-6.893C-0.811,-7.253 -1.374,-7.434 -2.095,-7.434L-8.48,-7.434L-9.224,-2.704L-2.839,-2.704C-2.117,-2.704 -1.498,-2.885 -0.98,-3.245C-0.462,-3.605 -0.135,-4.212 0,-5.069M-18.076,8.446L-14.595,-13.515L-0.575,-13.515C1.069,-13.515 2.46,-13.363 3.598,-13.059C4.735,-12.756 5.63,-12.276 6.284,-11.623C6.937,-10.97 7.359,-10.12 7.551,-9.072C7.742,-8.026 7.714,-6.769 7.466,-5.305C7.061,-2.715 5.968,-0.789 4.189,0.472C2.409,1.733 -0.124,2.363 -3.412,2.363L-10.001,2.363L-10.98,8.446L-18.076,8.446Z" style="fill:white;fill-rule:nonzero;"/>
    </g>
    <g transform="matrix(4.166667,0,0,4.166667,571.320501,111.795)">
        <path d="M0,21.961L1.25,14.054L-8.244,14.054L-9.493,21.961L-16.589,21.961L-13.109,0L-6.014,0L-7.264,7.974L2.23,7.974L3.48,0L10.575,0L7.095,21.961L0,21.961Z" style="fill:white;fill-rule:nonzero;"/>
    </g>
    <g transform="matrix(4.166667,0,0,4.166667,635.121334,203.29875)">
        <path d="M0,-21.961L20.981,-21.961L20.069,-16.217L6.183,-16.217L5.811,-13.785L15.754,-13.785L14.876,-8.379L4.932,-8.379L4.527,-5.744L18.413,-5.744L17.501,0L-3.48,0L0,-21.961Z" style="fill:white;fill-rule:nonzero;"/>
    </g>
    <g transform="matrix(4.166667,0,0,4.166667,792.504251,158.25375)">
        <path d="M0,-0.339C0.721,-0.339 1.34,-0.52 1.858,-0.88C2.376,-1.24 2.703,-1.847 2.838,-2.704C2.973,-3.559 2.838,-4.168 2.433,-4.528C2.027,-4.888 1.464,-5.069 0.743,-5.069L-5.98,-5.069L-6.723,-0.339L0,-0.339ZM-15.575,10.811L-12.095,-11.15L2.264,-11.15C5.575,-11.15 7.86,-10.514 9.122,-9.242C10.383,-7.968 10.789,-5.891 10.339,-3.008C10.09,-1.432 9.488,-0.073 8.531,1.063C7.573,2.201 6.318,3.062 4.764,3.647L7.365,10.811L-0.338,10.811L-2.365,4.56L-7.5,4.56L-8.48,10.811L-15.575,10.811Z" style="fill:white;fill-rule:nonzero;"/>
    </g>
    <g transform="matrix(4.166667,0,0,4.166667,55.956751,203.46125)">
        <path d="M0,-22C-6.002,-22 -11.904,-17.082 -13.186,-11C-14.458,-4.918 -10.623,0 -4.621,0L12.908,0L14.935,-13.256L-0.129,-13.256L-0.775,-8.983L-0.865,-8.407L-0.875,-8.357L7.453,-8.357L7.035,-5.624L-2.256,-5.624C-5.227,-5.624 -7.125,-8.029 -6.489,-11C-5.863,-13.971 -2.941,-16.376 0.03,-16.376L15.412,-16.376L16.267,-22L0,-22Z" style="fill:white;fill-rule:nonzero;"/>
    </g>
    <g transform="matrix(4.166667,0,0,4.166667,1188.883834,204.01625)">
        <path d="M0,-21.96L23.962,-21.96L23.05,-16.217L6.182,-16.217L5.811,-13.784L19.737,-13.784L18.858,-8.378L4.933,-8.378L4.527,-5.744L21.394,-5.744L20.482,0L-3.48,0L0,-21.96Z" style="fill:white;fill-rule:nonzero;"/>
    </g>
    <g transform="matrix(4.166667,0,0,4.166667,1308.448834,204.01625)">
        <path d="M0,-21.96L7.095,-21.96L4.561,-5.912L15.748,-5.912L14.801,0L-3.48,0L0,-21.96Z" style="fill:white;fill-rule:nonzero;"/>
    </g>
    <g transform="matrix(4.166667,0,0,4.166667,1404.358418,204.355833)">
        <path d="M0,-21.96L23.961,-21.96L23.049,-16.217L6.182,-16.217L5.811,-13.784L19.736,-13.784L18.858,-8.378L4.933,-8.378L4.527,-5.744L21.394,-5.744L20.481,0L-3.48,0L0,-21.96Z" style="fill:white;fill-rule:nonzero;"/>
    </g>
    <g transform="matrix(4.166667,0,0,4.166667,1651.473834,112.517083)">
        <path d="M0,21.96L2.568,5.743L-5.294,5.743L-4.382,0L18.471,0L17.559,5.743L9.663,5.743L7.095,21.96L0,21.96Z" style="fill:white;fill-rule:nonzero;"/>
    </g>
    <g transform="matrix(4.166667,0,0,4.166667,1806.008834,158.971667)">
        <path d="M0,-0.338C0.72,-0.338 1.34,-0.518 1.858,-0.878C2.376,-1.239 2.703,-1.847 2.838,-2.703C2.973,-3.559 2.838,-4.167 2.432,-4.527C2.027,-4.887 1.463,-5.069 0.743,-5.069L-7.769,-5.069L-8.512,-0.338L0,-0.338ZM-17.364,10.811L-13.884,-11.149L2.264,-11.149C5.575,-11.149 7.86,-10.513 9.122,-9.24C10.383,-7.968 10.789,-5.891 10.338,-3.008C10.09,-1.431 9.488,-0.073 8.531,1.064C7.573,2.202 6.317,3.063 4.764,3.648L7.365,10.811L-0.338,10.811L-2.365,4.561L-9.289,4.561L-10.269,10.811L-17.364,10.811Z" style="fill:white;fill-rule:nonzero;"/>
    </g>
    <g transform="matrix(0.652154,-4.115314,-4.115314,-0.652154,1918.630884,187.18745)">
        <path d="M-6.385,14.484L15.849,14.484L16.96,7.476L-5.274,7.476L-6.385,14.484Z" style="fill:white;fill-rule:nonzero;"/>
    </g>
    <g transform="matrix(4.166667,0,0,4.166667,1613.509668,204.182917)">
        <path d="M0,-22L-0.865,-16.376L-11.209,-16.376C-14.18,-16.376 -17.101,-13.971 -17.727,-11C-18.363,-8.029 -16.465,-5.624 -13.494,-5.624L-2.504,-5.624L-3.359,0L-15.859,0C-21.861,0 -25.697,-4.918 -24.425,-11C-23.143,-17.081 -17.241,-22 -11.239,-22L0,-22Z" style="fill:white;fill-rule:nonzero;"/>
    </g>
    <g transform="matrix(4.166667,0,0,4.166667,2008.332168,204.182917)">
        <path d="M0,-22L-0.865,-16.376L-11.209,-16.376C-14.18,-16.376 -17.101,-13.971 -17.727,-11C-18.363,-8.029 -16.465,-5.624 -13.494,-5.624L-2.504,-5.624L-3.359,0L-15.859,0C-21.861,0 -25.697,-4.918 -24.425,-11C-23.143,-17.081 -17.241,-22 -11.239,-22L0,-22Z" style="fill:white;fill-rule:nonzero;"/>
    </g>
</svg>
